# xmcd
#
# Track frame offsets: 
#        150
#        17007
#        29725
#        49222
#        70457
#        85812
#        103007
#        118870
#        133842
#        149955
#        166082
#        183960
#
# Disc length: 2633 seconds
#
# Revision: 0
# Processed by: cddbd v1.5.2PL0 Copyright (c) Steve Scherf et al.
# Submitted via: ExactAudioCopy v0.99pb1
#
DISCID=b40a470c
DTITLE=ÂÄ§J´µ­·»P40§'£µ^ - ÂÄ§J´µ­·»P40§'£µ^
DYEAR=1900
DGENRE=
TTITLE0=ÀvÁÙ
TTITLE1=­«¬Û³{
TTITLE2=®üÃý
TTITLE3=ÅS¯]¨à
TTITLE4=µó¿O¤U
TTITLE5=´X®É¦A¦^ÀY
TTITLE6=§gµL·T
TTITLE7=ªQªL§C«B
TTITLE8=±ùªá²\\
TTITLE9=®ü»}¤s·ù
TTITLE10=²\\ªº¤p«B
TTITLE11=§A«ç»ò»¡
EXTD=
EXTT0=
EXTT1=
EXTT2=
EXTT3=
EXTT4=
EXTT5=
EXTT6=
EXTT7=
EXTT8=
EXTT9=
EXTT10=
EXTT11=
PLAYORDER=
